# xmcd
#
# Track frame offsets: 
#        150
#        12332
#        22820
#        33240
#        44245
#        56980
#        68087
#        80120
#        92195
#        103692
#        115995
#        127150
#        137252
#        149085
#        161277
#        171985
#        183680
#        192250
#        203060
#        215527
#        224870
#        235887
#        245942
#        256195
#
# Disc length: 3533 seconds
#
# Revision: 3
# Processed by: cddbd v1.5.2PL0 Copyright (c) Steve Scherf et al.
# Submitted via: ExactAudioCopy v1.1
#
DISCID=7a0dcb18
DTITLE=The Maddox Brothers and Rose - The Most Colorful Hillbilly Band I
DTITLE=n America - Disc 2
DYEAR=1998
DGENRE=Country
TTITLE0=Beautiful Bouquet (mono)
TTITLE1=A Kiss From Your Lips (mono)
TTITLE2=My Child Has A Billy Goat (mono)
TTITLE3=The Time Is Spring (mono)
TTITLE4=Rose Maddox - Breathless Love (mono)
TTITLE5=Rose Maddox - Hasty Baby (mono)
TTITLE6=Rose Maddox - There's No Right Way To Do Me Wrong (mono)
TTITLE7=Rose Maddox - The Birthday Card Song (mono)
TTITLE8=You Won't Believe This (mono)
TTITLE9=Forever Yours (mono)
TTITLE10=I Could Never Stop Loving You (mono)
TTITLE11=Fountain Of Youth (mono)
TTITLE12=Rose Maddox - Marry Me Again (mono)
TTITLE13=Rose Maddox - Poor Little Heartbroken Rose (mono)
TTITLE14=Rose Maddox - I Wonder If I Can Lose The Blues This Way (mono
TTITLE14=)
TTITLE15=Rose Maddox - Waltz Of The Pines (mono)
TTITLE16=I've Got Four Big Brothers (To Look After Me) (mono)
TTITLE17=I Gotta Go Get My Baby (mono)
TTITLE18=A Rusty Old Halo (mono)
TTITLE19=No More Time (mono)
TTITLE20=Rose Maddox - Wild Wild Young Men (mono)
TTITLE21=Rose and Retta Maddox - The Hoot-Owl Melody (mono)
TTITLE22=Rose and Retta Maddox - Was There A Teardrop (mono)
TTITLE23=Rose and Retta Maddox - I'm Gonna Be Loved Tonight (mono)
EXTD=
EXTT0=
EXTT1=
EXTT2=
EXTT3=
EXTT4=
EXTT5=
EXTT6=
EXTT7=
EXTT8=
EXTT9=
EXTT10=
EXTT11=
EXTT12=
EXTT13=
EXTT14=
EXTT15=
EXTT16=
EXTT17=
EXTT18=
EXTT19=
EXTT20=
EXTT21=
EXTT22=
EXTT23=
PLAYORDER=
